<?xml version="1.0" encoding="UTF-8"?><svg id="Layer_1" xmlns="http://www.w3.org/2000/svg" viewBox="0 0 894.96 113.1"><defs><style>.cls-1{isolation:isolate;}.cls-2{fill:#fff;}.cls-3{fill:none;stroke:#000;stroke-miterlimit:10;}.cls-4{fill:#b22222;}</style></defs><g id="Open"><g class="cls-1"><g class="cls-1"><path d="M18.9,11.85h-6.9v81.64h6.9v7.42H5.28V4.43h13.62v7.42Z"/></g></g></g><g id="Close"><g class="cls-1"><g class="cls-1"><path d="M814.7,4.43h13.47v96.48h-13.47v-7.42h6.88V11.85h-6.88v-7.42Z"/></g></g></g><g id="Underscore"><g class="cls-1"><g class="cls-1"><path class="cls-4" d="M890.88,88.46h-47.77v-8.78h47.77v8.78Z"/></g></g></g><g id="Close_white"><g class="cls-1"><g class="cls-1"><path class="cls-2" d="M815.47,4.75h13.47v96.48h-13.47v-7.42h6.88V12.17h-6.88v-7.42Z"/></g></g></g><g id="Open_white"><g class="cls-1"><g class="cls-1"><path class="cls-2" d="M18.97,11.72h-6.9v81.64h6.9v7.42H5.35V4.3h13.62v7.42Z"/></g></g></g><g id="Brand_White"><g class="cls-1"><g class="cls-1"><path class="cls-2" d="M110.68,36.35h-13.3v-5.5c0-.4-.3-.7-.6-.7h-44.2c-.4,0-.7.3-.7.7v14.8c0,.4.3.7.7.7h44.2c7.6,0,13.9,6.2,13.9,13.9v14.8c0,7.7-6.3,13.9-13.9,13.9h-44.2c-7.7,0-13.9-6.2-13.9-13.9v-5.5h13.2v5.5c0,.4.3.7.7.7h44.2c.3,0,.6-.3.6-.7v-14.8c0-.4-.3-.7-.6-.7h-44.2c-7.7,0-13.9-6.2-13.9-13.9v-14.8c0-7.7,6.2-13.9,13.9-13.9h44.2c7.6,0,13.9,6.2,13.9,13.9v5.5Z"/><path class="cls-2" d="M196.78,16.95v13.2h-29.3v58.8h-13.3V30.15h-29.4v-13.2h72Z"/><path class="cls-2" d="M283.18,50.35c0,7.6-6.3,13.9-14,13.9h-3.9l17.9,21.3v3.4h-14.4l-20.8-24.7h-23.6v24.7h-13.2V17.05h58c7.7,0,14,6.3,14,13.9v19.4ZM269.18,51.05c.4,0,.7-.3.7-.7v-19.4c0-.4-.3-.7-.7-.7h-44.1c-.4,0-.7.3-.7.7v19.4c0,.4.3.7.7.7h44.1Z"/><path class="cls-2" d="M364.28,57.75v13.1h-10.1v18.1h-13.1v-18.1h-45.3v-12.3l46.1-41.6h12.3v40.8h10.1ZM316.18,57.75h24.9v-20.2l-24.9,20.2Z"/><path class="cls-2" d="M449.18,16.95v13.2h-29.3v58.8h-13.3V30.15h-29.4v-13.2h72Z"/><path class="cls-2" d="M521.28,16.95c7.6,0,13.8,6.5,13.8,14.1v43.7c0,7.6-6.2,14.2-13.8,14.2h-43.7c-7.6,0-13.8-6.6-13.8-14.2V31.05c0-7.6,6.2-14.1,13.8-14.1h43.7ZM477.58,30.35c-.4,0-.7.3-.7.7v32.2l39.2-32.9h-38.5ZM521.28,75.45c.4,0,.7-.3.7-.7v-32.2l-39.2,32.9h38.5Z"/><path class="cls-2" d="M622.48,16.95v13.2h-29.3v58.8h-13.3V30.15h-29.4v-13.2h72Z"/><path class="cls-2" d="M705.38,16.95v13.2h-29.3v58.8h-13.3V30.15h-29.4v-13.2h72Z"/><path class="cls-2" d="M777.48,16.95c7.6,0,13.8,6.5,13.8,14.1v43.7c0,7.6-6.2,14.2-13.8,14.2h-43.7c-7.6,0-13.8-6.6-13.8-14.2V31.05c0-7.6,6.2-14.1,13.8-14.1h43.7ZM733.77,30.35c-.4,0-.7.3-.7.7v32.2l39.2-32.9h-38.5ZM777.48,75.45c.4,0,.7-.3.7-.7v-32.2l-39.2,32.9h38.5Z"/></g><g class="cls-1"><path class="cls-3" d="M110.68,36.35h-13.3v-5.5c0-.4-.3-.7-.6-.7h-44.2c-.4,0-.7.3-.7.7v14.8c0,.4.3.7.7.7h44.2c7.6,0,13.9,6.2,13.9,13.9v14.8c0,7.7-6.3,13.9-13.9,13.9h-44.2c-7.7,0-13.9-6.2-13.9-13.9v-5.5h13.2v5.5c0,.4.3.7.7.7h44.2c.3,0,.6-.3.6-.7v-14.8c0-.4-.3-.7-.6-.7h-44.2c-7.7,0-13.9-6.2-13.9-13.9v-14.8c0-7.7,6.2-13.9,13.9-13.9h44.2c7.6,0,13.9,6.2,13.9,13.9v5.5Z"/><path class="cls-3" d="M196.78,16.95v13.2h-29.3v58.8h-13.3V30.15h-29.4v-13.2h72Z"/><path class="cls-3" d="M283.18,50.35c0,7.6-6.3,13.9-14,13.9h-3.9l17.9,21.3v3.4h-14.4l-20.8-24.7h-23.6v24.7h-13.2V17.05h58c7.7,0,14,6.3,14,13.9v19.4ZM269.18,51.05c.4,0,.7-.3.7-.7v-19.4c0-.4-.3-.7-.7-.7h-44.1c-.4,0-.7.3-.7.7v19.4c0,.4.3.7.7.7h44.1Z"/><path class="cls-3" d="M364.28,57.75v13.1h-10.1v18.1h-13.1v-18.1h-45.3v-12.3l46.1-41.6h12.3v40.8h10.1ZM316.18,57.75h24.9v-20.2l-24.9,20.2Z"/><path class="cls-3" d="M449.18,16.95v13.2h-29.3v58.8h-13.3V30.15h-29.4v-13.2h72Z"/><path class="cls-3" d="M521.28,16.95c7.6,0,13.8,6.5,13.8,14.1v43.7c0,7.6-6.2,14.2-13.8,14.2h-43.7c-7.6,0-13.8-6.6-13.8-14.2V31.05c0-7.6,6.2-14.1,13.8-14.1h43.7ZM477.58,30.35c-.4,0-.7.3-.7.7v32.2l39.2-32.9h-38.5ZM521.28,75.45c.4,0,.7-.3.7-.7v-32.2l-39.2,32.9h38.5Z"/><path class="cls-3" d="M622.48,16.95v13.2h-29.3v58.8h-13.3V30.15h-29.4v-13.2h72Z"/><path class="cls-3" d="M705.38,16.95v13.2h-29.3v58.8h-13.3V30.15h-29.4v-13.2h72Z"/><path class="cls-3" d="M777.48,16.95c7.6,0,13.8,6.5,13.8,14.1v43.7c0,7.6-6.2,14.2-13.8,14.2h-43.7c-7.6,0-13.8-6.6-13.8-14.2V31.05c0-7.6,6.2-14.1,13.8-14.1h43.7ZM733.77,30.35c-.4,0-.7.3-.7.7v32.2l39.2-32.9h-38.5ZM777.48,75.45c.4,0,.7-.3.7-.7v-32.2l-39.2,32.9h38.5Z"/></g></g></g></svg>