<?xml version="1.0" encoding="UTF-8"?>
<svg xmlns="http://www.w3.org/2000/svg" version="1.1" viewBox="0 0 947.66 146.73">
  <!-- Generator: Adobe Illustrator 29.8.2, SVG Export Plug-In . SVG Version: 2.1.1 Build 3)  -->
  <defs>
    <style>
      .st0 {
        stroke: #000;
        stroke-miterlimit: 10;
      }

      .st0, .st1 {
        fill: #fff;
      }

      .st2 {
        fill: #b22222;
      }

      .st3 {
        display: none;
      }
    </style>
  </defs>
  <g id="Brand_black">
    <g>
      <path d="M134.27,50.86h-13.3v-5.5c0-.4-.3-.7-.6-.7h-44.2c-.4,0-.7.3-.7.7v14.8c0,.4.3.7.7.7h44.2c7.6,0,13.9,6.2,13.9,13.9v14.8c0,7.7-6.3,13.9-13.9,13.9h-44.2c-7.7,0-13.9-6.2-13.9-13.9v-5.5h13.2v5.5c0,.4.3.7.7.7h44.2c.3,0,.6-.3.6-.7v-14.8c0-.4-.3-.7-.6-.7h-44.2c-7.7,0-13.9-6.2-13.9-13.9v-14.8c0-7.7,6.2-13.9,13.9-13.9h44.2c7.6,0,13.9,6.2,13.9,13.9v5.5Z"/>
      <path d="M220.87,31.46v13.2h-29.3v58.8h-13.3v-58.8h-29.4v-13.2h72Z"/>
      <path d="M307.77,64.86c0,7.6-6.3,13.9-14,13.9h-3.9l17.9,21.3v3.4h-14.4l-20.8-24.7h-23.6v24.7h-13.2V31.56h58c7.7,0,14,6.3,14,13.9v19.4ZM293.77,65.56c.4,0,.7-.3.7-.7v-19.4c0-.4-.3-.7-.7-.7h-44.1c-.4,0-.7.3-.7.7v19.4c0,.4.3.7.7.7h44.1Z"/>
      <path d="M389.37,72.26v13.1h-10.1v18.1h-13.1v-18.1h-45.3v-12.3l46.1-41.6h12.3v40.8h10.1ZM341.27,72.26h24.9v-20.2l-24.9,20.2Z"/>
      <path d="M474.77,31.46v13.2h-29.3v58.8h-13.3v-58.8h-29.4v-13.2h72Z"/>
      <path d="M547.37,31.46c7.6,0,13.8,6.5,13.8,14.1v43.7c0,7.6-6.2,14.2-13.8,14.2h-43.7c-7.6,0-13.8-6.6-13.8-14.2v-43.7c0-7.6,6.2-14.1,13.8-14.1h43.7ZM503.67,44.86c-.4,0-.7.3-.7.7v32.2l39.2-32.9h-38.5ZM547.37,89.96c.4,0,.7-.3.7-.7v-32.2l-39.2,32.9h38.5Z"/>
      <path d="M649.07,31.46v13.2h-29.3v58.8h-13.3v-58.8h-29.4v-13.2h72Z"/>
      <path d="M732.47,31.46v13.2h-29.3v58.8h-13.3v-58.8h-29.4v-13.2h72Z"/>
      <path d="M805.07,31.46c7.6,0,13.8,6.5,13.8,14.1v43.7c0,7.6-6.2,14.2-13.8,14.2h-43.7c-7.6,0-13.8-6.6-13.8-14.2v-43.7c0-7.6,6.2-14.1,13.8-14.1h43.7ZM761.36,44.86c-.4,0-.7.3-.7.7v32.2l39.2-32.9h-38.5ZM805.07,89.96c.4,0,.7-.3.7-.7v-32.2l-39.2,32.9h38.5Z"/>
    </g>
    <g>
      <path d="M134.32,50.66h-13.3v-5.5c0-.4-.3-.7-.6-.7h-44.2c-.4,0-.7.3-.7.7v14.8c0,.4.3.7.7.7h44.2c7.6,0,13.9,6.2,13.9,13.9v14.8c0,7.7-6.3,13.9-13.9,13.9h-44.2c-7.7,0-13.9-6.2-13.9-13.9v-5.5h13.2v5.5c0,.4.3.7.7.7h44.2c.3,0,.6-.3.6-.7v-14.8c0-.4-.3-.7-.6-.7h-44.2c-7.7,0-13.9-6.2-13.9-13.9v-14.8c0-7.7,6.2-13.9,13.9-13.9h44.2c7.6,0,13.9,6.2,13.9,13.9v5.5Z"/>
      <path d="M220.92,31.26v13.2h-29.3v58.8h-13.3v-58.8h-29.4v-13.2h72Z"/>
      <path d="M307.82,64.66c0,7.6-6.3,13.9-14,13.9h-3.9l17.9,21.3v3.4h-14.4l-20.8-24.7h-23.6v24.7h-13.2V31.36h58c7.7,0,14,6.3,14,13.9v19.4ZM293.81,65.36c.4,0,.7-.3.7-.7v-19.4c0-.4-.3-.7-.7-.7h-44.1c-.4,0-.7.3-.7.7v19.4c0,.4.3.7.7.7h44.1Z"/>
      <path d="M389.41,72.06v13.1h-10.1v18.1h-13.1v-18.1h-45.3v-12.3l46.1-41.6h12.3v40.8h10.1ZM341.31,72.06h24.9v-20.2l-24.9,20.2Z"/>
      <path d="M474.81,31.26v13.2h-29.3v58.8h-13.3v-58.8h-29.4v-13.2h72Z"/>
      <path d="M547.41,31.26c7.6,0,13.8,6.5,13.8,14.1v43.7c0,7.6-6.2,14.2-13.8,14.2h-43.7c-7.6,0-13.8-6.6-13.8-14.2v-43.7c0-7.6,6.2-14.1,13.8-14.1h43.7ZM503.71,44.66c-.4,0-.7.3-.7.7v32.2l39.2-32.9h-38.5ZM547.41,89.77c.4,0,.7-.3.7-.7v-32.2l-39.2,32.9h38.5Z"/>
      <path d="M649.11,31.26v13.2h-29.3v58.8h-13.3v-58.8h-29.4v-13.2h72Z"/>
      <path d="M732.51,31.26v13.2h-29.3v58.8h-13.3v-58.8h-29.4v-13.2h72Z"/>
      <path d="M805.11,31.26c7.6,0,13.8,6.5,13.8,14.1v43.7c0,7.6-6.2,14.2-13.8,14.2h-43.7c-7.6,0-13.8-6.6-13.8-14.2v-43.7c0-7.6,6.2-14.1,13.8-14.1h43.7ZM761.41,44.66c-.4,0-.7.3-.7.7v32.2l39.2-32.9h-38.5ZM805.11,89.77c.4,0,.7-.3.7-.7v-32.2l-39.2,32.9h38.5Z"/>
    </g>
  </g>
  <g id="Open">
    <path d="M42.21,26.63h-6.86v81.64h6.86v7.42h-13.54V19.21h13.54v7.42Z"/>
  </g>
  <g id="Close">
    <path d="M838.13,19.21h13.51v96.48h-13.51v-7.42h6.9V26.63h-6.9v-7.42Z"/>
  </g>
  <g id="Underscore">
    <path class="st2" d="M914.3,103.24h-47.77v-8.78h47.77v8.78Z"/>
  </g>
  <g id="Close_white" class="st3">
    <path class="st1" d="M838.9,19.53h13.51v96.48h-13.51v-7.42h6.9V26.96h-6.9v-7.42Z"/>
  </g>
  <g id="Open_white" class="st3">
    <path class="st1" d="M42.28,26.5h-6.86v81.64h6.86v7.42h-13.54V19.08h13.54v7.42Z"/>
  </g>
  <g id="Brand_White" class="st3">
    <g>
      <path class="st0" d="M134.11,51.13h-13.3v-5.5c0-.4-.3-.7-.6-.7h-44.2c-.4,0-.7.3-.7.7v14.8c0,.4.3.7.7.7h44.2c7.6,0,13.9,6.2,13.9,13.9v14.8c0,7.7-6.3,13.9-13.9,13.9h-44.2c-7.7,0-13.9-6.2-13.9-13.9v-5.5h13.2v5.5c0,.4.3.7.7.7h44.2c.3,0,.6-.3.6-.7v-14.8c0-.4-.3-.7-.6-.7h-44.2c-7.7,0-13.9-6.2-13.9-13.9v-14.8c0-7.7,6.2-13.9,13.9-13.9h44.2c7.6,0,13.9,6.2,13.9,13.9v5.5Z"/>
      <path class="st0" d="M220.71,31.73v13.2h-29.3v58.8h-13.3v-58.8h-29.4v-13.2h72Z"/>
      <path class="st0" d="M307.61,65.13c0,7.6-6.3,13.9-14,13.9h-3.9l17.9,21.3v3.4h-14.4l-20.8-24.7h-23.6v24.7h-13.2V31.83h58c7.7,0,14,6.3,14,13.9v19.4ZM293.61,65.83c.4,0,.7-.3.7-.7v-19.4c0-.4-.3-.7-.7-.7h-44.1c-.4,0-.7.3-.7.7v19.4c0,.4.3.7.7.7h44.1Z"/>
      <path class="st0" d="M389.21,72.53v13.1h-10.1v18.1h-13.1v-18.1h-45.3v-12.3l46.1-41.6h12.3v40.8h10.1ZM341.11,72.53h24.9v-20.2l-24.9,20.2Z"/>
      <path class="st0" d="M474.61,31.73v13.2h-29.3v58.8h-13.3v-58.8h-29.4v-13.2h72Z"/>
      <path class="st0" d="M547.21,31.73c7.6,0,13.8,6.5,13.8,14.1v43.7c0,7.6-6.2,14.2-13.8,14.2h-43.7c-7.6,0-13.8-6.6-13.8-14.2v-43.7c0-7.6,6.2-14.1,13.8-14.1h43.7ZM503.5,45.13c-.4,0-.7.3-.7.7v32.2l39.2-32.9h-38.5ZM547.21,90.23c.4,0,.7-.3.7-.7v-32.2l-39.2,32.9h38.5Z"/>
      <path class="st0" d="M648.91,31.73v13.2h-29.3v58.8h-13.3v-58.8h-29.4v-13.2h72Z"/>
      <path class="st0" d="M732.31,31.73v13.2h-29.3v58.8h-13.3v-58.8h-29.4v-13.2h72Z"/>
      <path class="st0" d="M804.91,31.73c7.6,0,13.8,6.5,13.8,14.1v43.7c0,7.6-6.2,14.2-13.8,14.2h-43.7c-7.6,0-13.8-6.6-13.8-14.2v-43.7c0-7.6,6.2-14.1,13.8-14.1h43.7ZM761.2,45.13c-.4,0-.7.3-.7.7v32.2l39.2-32.9h-38.5ZM804.91,90.23c.4,0,.7-.3.7-.7v-32.2l-39.2,32.9h38.5Z"/>
    </g>
  </g>
</svg>